<mxfile host="65bd71144e">
    <diagram id="OQ-NXX0X7oY31mnP63rW" name="PÃ¡gina-1">
        <mxGraphModel dx="820" dy="566" grid="1" gridSize="10" guides="1" tooltips="1" connect="1" arrows="1" fold="1" page="1" pageScale="1" pageWidth="827" pageHeight="1169" math="0" shadow="0">
            <root>
                <mxCell id="0"/>
                <mxCell id="1" parent="0"/>
                <mxCell id="4" value="" style="edgeStyle=none;html=1;" edge="1" parent="1" source="2" target="3">
                    <mxGeometry relative="1" as="geometry"/>
                </mxCell>
                <mxCell id="2" value="INICIO" style="ellipse;whiteSpace=wrap;html=1;fillColor=#60a917;fontColor=#ffffff;strokeColor=#2D7600;" vertex="1" parent="1">
                    <mxGeometry x="330" y="10" width="100" height="50" as="geometry"/>
                </mxCell>
                <mxCell id="6" value="" style="edgeStyle=none;html=1;entryX=0.5;entryY=0;entryDx=0;entryDy=0;" edge="1" parent="1" source="3" target="7">
                    <mxGeometry relative="1" as="geometry">
                        <mxPoint x="390" y="320" as="targetPoint"/>
                    </mxGeometry>
                </mxCell>
                <mxCell id="3" value="n" style="shape=parallelogram;perimeter=parallelogramPerimeter;whiteSpace=wrap;html=1;fixedSize=1;fillColor=#a20025;fontColor=#ffffff;strokeColor=#6F0000;" vertex="1" parent="1">
                    <mxGeometry x="319" y="110" width="120" height="60" as="geometry"/>
                </mxCell>
                <mxCell id="10" value="" style="edgeStyle=none;html=1;" edge="1" parent="1" source="7" target="9">
                    <mxGeometry relative="1" as="geometry"/>
                </mxCell>
                <mxCell id="7" value="reverso=0" style="rounded=0;whiteSpace=wrap;html=1;fillColor=#1ba1e2;fontColor=#ffffff;strokeColor=#006EAF;" vertex="1" parent="1">
                    <mxGeometry x="319" y="211" width="120" height="60" as="geometry"/>
                </mxCell>
                <mxCell id="12" value="" style="edgeStyle=none;html=1;" edge="1" parent="1" source="9" target="11">
                    <mxGeometry relative="1" as="geometry"/>
                </mxCell>
                <mxCell id="15" value="" style="edgeStyle=none;html=1;" edge="1" parent="1">
                    <mxGeometry relative="1" as="geometry">
                        <mxPoint x="421" y="360" as="sourcePoint"/>
                        <mxPoint x="570" y="430" as="targetPoint"/>
                        <Array as="points">
                            <mxPoint x="570" y="360"/>
                        </Array>
                    </mxGeometry>
                </mxCell>
                <mxCell id="9" value="n&amp;gt;o" style="rhombus;whiteSpace=wrap;html=1;rounded=0;fillColor=#e3c800;fontColor=#000000;strokeColor=#B09500;" vertex="1" parent="1">
                    <mxGeometry x="341" y="320" width="80" height="80" as="geometry"/>
                </mxCell>
                <mxCell id="13" style="edgeStyle=none;html=1;" edge="1" parent="1">
                    <mxGeometry relative="1" as="geometry">
                        <mxPoint x="340" y="360" as="targetPoint"/>
                        <mxPoint x="379" y="529" as="sourcePoint"/>
                        <Array as="points">
                            <mxPoint x="379" y="560"/>
                            <mxPoint x="200" y="560"/>
                            <mxPoint x="200" y="360"/>
                        </Array>
                    </mxGeometry>
                </mxCell>
                <mxCell id="11" value="cifra=n%10&lt;br&gt;reverso=reverso*10+cifra&lt;br&gt;n=n//10" style="whiteSpace=wrap;html=1;rounded=0;fillColor=#1ba1e2;fontColor=#ffffff;strokeColor=#006EAF;" vertex="1" parent="1">
                    <mxGeometry x="304.5" y="430" width="149" height="100" as="geometry"/>
                </mxCell>
                <mxCell id="17" value="" style="edgeStyle=none;html=1;" edge="1" parent="1">
                    <mxGeometry relative="1" as="geometry">
                        <mxPoint x="568.5" y="490" as="sourcePoint"/>
                        <mxPoint x="568.5" y="573.5" as="targetPoint"/>
                    </mxGeometry>
                </mxCell>
                <mxCell id="14" value="REVERSO" style="shape=document;whiteSpace=wrap;html=1;boundedLbl=1;rounded=0;fillColor=#76608a;fontColor=#ffffff;strokeColor=#432D57;" vertex="1" parent="1">
                    <mxGeometry x="518" y="433" width="101" height="67" as="geometry"/>
                </mxCell>
                <mxCell id="16" value="FIN" style="ellipse;whiteSpace=wrap;html=1;rounded=0;fillColor=#60a917;fontColor=#ffffff;strokeColor=#2D7600;" vertex="1" parent="1">
                    <mxGeometry x="522.75" y="574" width="91.5" height="40" as="geometry"/>
                </mxCell>
            </root>
        </mxGraphModel>
    </diagram>
</mxfile>